<?xml version="1.0" encoding="utf-8"?>
<!-- Generated by -->
<!DOCTYPE svg PUBLIC "-//W3C//DTD SVG 1.1//EN" "http://www.w3.org/Graphics/SVG/1.1/DTD/svg11.dtd">
<svg version="1.1" xmlns="http://www.w3.org/2000/svg" xmlns:xlink="http://www.w3.org/1999/xlink" width="16" height="16" viewBox="0 0 16 16">
	<path fill="#666" d="M1 1v12h12v-12h-12zM1 0h12c0.552 0 1 0.448 1 1v12c0 0.552-0.448 1-1 1h-12c-0.552 0-1-0.448-1-1v-12c0-0.552 0.448-1 1-1z" />
	<path fill="#666" d="M15 13.5c0 0.828-0.672 1.5-1.5 1.5s-1.5-0.672-1.5-1.5c0-0.828 0.672-1.5 1.5-1.5s1.5 0.672 1.5 1.5z" />
</svg>