<?xml version="1.0" encoding="utf-8"?>
<!-- Generated by -->
<!DOCTYPE svg PUBLIC "-//W3C//DTD SVG 1.1//EN" "http://www.w3.org/Graphics/SVG/1.1/DTD/svg11.dtd">
<svg version="1.1" xmlns="http://www.w3.org/2000/svg" xmlns:xlink="http://www.w3.org/1999/xlink" width="16" height="16" viewBox="0 0 16 16">
	<path fill="#666" d="M6.7,4.8c0,0,0.9-1.1,1.4-1.7l5.8,3.1c0,0.4-0.4,1.2-0.8,2.1C8.9,6,6.7,4.8,6.7,4.8z M9.5,13.9
			c0,0-0.8-0.5-2.3-1.4c0.2-0.2,0.5-0.5,0.9-0.8c0.2-0.2,0.4-0.5,0.8-0.9c0.2-0.2,0.1-0.5-0.1-0.7C8.6,9.9,8.3,10,8.1,10.2
			c-0.3,0.4-0.5,0.7-0.7,0.8c-0.5,0.5-0.9,0.8-1.1,1l-2.3-1.4c0.2-0.1,0.5-0.3,0.7-0.4c0.6-0.4,1.1-0.8,1.1-0.8
			c0.2-0.2,0.2-0.5,0-0.7c-0.2-0.2-0.5-0.2-0.7,0c0,0-0.4,0.4-0.9,0.7C3.8,9.7,3.3,9.9,3.1,10L1.6,9.1c0.9-0.5,2.3-1.3,3.3-2.3
			C5.2,6.5,5.6,6,6,5.6l6.8,3.7c-0.1,0.2-0.2,0.3-0.2,0.5C11.6,11.7,10.1,13.5,9.5,13.9z M14.9,5.7c0-0.1-0.1-0.1-0.2-0.2
			c0,0-1.1-0.6-3.1-1.7l1.7-3.2c0.1-0.2,0-0.5-0.2-0.7c-0.2-0.1-0.5,0-0.7,0.2l-1.7,3.1L8.2,2.1c0,0-0.1,0-0.1,0C8.1,2,8,2,7.9,2
			c-0.1,0-0.1,0-0.2,0.1c0,0-0.1,0.1-0.1,0.1c-1.3,1.6-2.5,3-3.5,3.9C2.8,7.5,0.4,8.6,0.3,8.6c-0.1,0-0.2,0.1-0.2,0.2
			C0,8.9,0,9,0,9.1c0,0,0,0,0,0.1c0,0.1,0.1,0.2,0.2,0.3L9,14.8C9.2,14.9,9.4,15,9.5,15c1.2,0,3.3-3.5,4-4.8
			C14.1,8.8,15.3,6.1,14.9,5.7C14.9,5.8,14.9,5.8,14.9,5.7z" />
</svg>